<svg width="32" height="32" viewBox="0 0 32 32" fill="none" xmlns="http://www.w3.org/2000/svg">
<path d="M19.3183 13.0102C19.2241 12.114 18.8098 11.2817 18.1516 10.6662C17.4933 10.0506 16.6351 9.69307 15.7346 9.65912C12.5056 9.58027 10.8419 12.1094 10.8419 15.7247C10.8419 19.3399 12.6771 22.2298 15.8252 22.2298C18.9733 22.2298 19.3183 18.6184 19.3183 18.6184L25.3503 18.9792C25.4121 20.037 25.251 21.096 24.8775 22.0875C24.5039 23.0791 23.9263 23.9811 23.1819 24.7352C22.1439 25.7134 20.9195 26.4726 19.5817 26.9674C18.2439 27.4622 16.8202 27.6825 15.3955 27.6152C13.9178 27.7544 12.4276 27.5637 11.0327 27.0568C9.63769 26.5498 8.37272 25.7394 7.32914 24.684C6.1814 23.561 5.28581 22.2066 4.7019 20.7108C4.11799 19.215 3.85913 17.6121 3.94254 16.0085C3.83747 14.2359 4.14383 12.4629 4.83769 10.8283C5.53154 9.19371 6.59407 7.74175 7.9422 6.58594C9.91165 4.87675 12.433 3.93781 15.0407 3.94249C17.6456 3.79383 20.2062 4.66371 22.1815 6.3683C24.1569 8.07289 25.3921 10.4787 25.6263 13.0773L19.3183 13.0102Z" fill="white" fill-opacity="0.5"/>
</svg>
