<svg width="32" height="32" viewBox="0 0 32 32" fill="none" xmlns="http://www.w3.org/2000/svg">
<path d="M17.0591 24.7598V30.7527C22.2923 30.7489 26.4084 28.129 28.9834 24.9251C26.4065 23.4421 26.0319 23.2218 23.6348 21.8389C23.0364 22.4543 20.869 24.7529 17.0591 24.7598Z" fill="white" fill-opacity="0.5"/>
<path d="M8.52279 18.5941L3.26807 21.6702C5.55931 27.0112 10.8655 30.7532 17.0473 30.7532C17.0511 30.7532 17.0549 30.7528 17.0587 30.7528V24.7598C17.0531 24.7598 17.0478 24.7604 17.0421 24.7604C12.9863 24.7604 9.69778 22.0979 8.52279 18.5941Z" fill="white" fill-opacity="0.5"/>
<path d="M17.0475 0.788991C8.77011 0.788991 2.06006 7.49658 2.06006 15.7711C2.06006 17.8659 2.49155 19.8596 3.26831 21.6702L8.52303 18.5941C8.22227 17.6973 8.05301 16.7482 8.05301 15.7712C8.05301 10.9769 11.9327 6.78174 17.0423 6.78174C20.8628 6.78174 23.0353 9.07374 23.6346 9.70326C26.0317 8.31056 26.4062 8.09381 28.9832 6.6169C26.4062 3.41067 22.2861 0.78894 17.0475 0.78894L17.0475 0.788991Z" fill="white" fill-opacity="0.5"/>
</svg>
