<svg width="19" height="19" viewBox="0 0 19 19" fill="none" xmlns="http://www.w3.org/2000/svg">
<g opacity="0.7">
<path fill-rule="evenodd" clip-rule="evenodd" d="M9.11765 0C4.08415 0 0 4.08415 0 9.11765C0 14.1512 4.08415 18.2353 9.11765 18.2353C14.1412 18.2353 18.2353 14.1512 18.2353 9.11765C18.2353 4.08415 14.1412 0 9.11765 0ZM15.14 4.20282C16.2278 5.52794 16.8805 7.21895 16.9003 9.04841C16.6432 8.999 14.072 8.47485 11.4811 8.80121C11.4218 8.67265 11.3723 8.53417 11.313 8.39576C11.1548 8.02 10.9768 7.63432 10.7988 7.26842C13.6666 6.10153 14.9719 4.42038 15.14 4.20282ZM9.11765 1.3449C11.0954 1.3449 12.9051 2.08658 14.2797 3.30292C14.1412 3.5007 12.9644 5.07305 10.1955 6.11139C8.91985 3.7677 7.50576 1.84924 7.28819 1.55257C7.87161 1.41412 8.48477 1.3449 9.11765 1.3449ZM5.80486 2.07669C6.01252 2.35358 7.39698 4.28193 8.69242 6.57616C5.05327 7.54531 1.83935 7.52554 1.49324 7.52554C1.99757 5.11261 3.62926 3.10514 5.80486 2.07669ZM1.32512 9.12756C1.32512 9.04841 1.32512 8.96931 1.32512 8.89022C1.66135 8.90008 5.43894 8.94954 9.3253 7.78265C9.55279 8.21774 9.76044 8.66273 9.95824 9.10773C9.85931 9.13742 9.75053 9.16711 9.65166 9.19674C5.63672 10.4922 3.5007 14.0325 3.3227 14.3291C2.08657 12.9546 1.32512 11.1251 1.32512 9.12756ZM9.11765 16.9102C7.31782 16.9102 5.6565 16.2971 4.34127 15.2686C4.47971 14.9818 6.06192 11.936 10.4526 10.4032C10.4724 10.3933 10.4823 10.3933 10.5021 10.3835C11.5998 13.2216 12.0448 15.6048 12.1635 16.2871C11.224 16.6926 10.1955 16.9102 9.11765 16.9102ZM13.4589 15.5752C13.3798 15.1005 12.9644 12.826 11.9459 10.0274C14.3885 9.64174 16.5245 10.2747 16.7915 10.3637C16.4553 12.5294 15.2093 14.3984 13.4589 15.5752Z" fill="white"/>
</g>
</svg>
