<svg width="19" height="19" viewBox="0 0 19 19" fill="none" xmlns="http://www.w3.org/2000/svg">
<path d="M9.12016 17.955C13.9996 17.955 17.9552 13.9995 17.9552 9.12003C17.9552 4.2406 13.9996 0.285034 9.12016 0.285034C4.24072 0.285034 0.285156 4.2406 0.285156 9.12003C0.285156 13.9995 4.24072 17.955 9.12016 17.955Z" fill="#EA4C89"/>
<path fill-rule="evenodd" clip-rule="evenodd" d="M9.12 0C4.08521 0 0 4.08521 0 9.12C0 14.1548 4.08521 18.24 9.12 18.24C14.1449 18.24 18.24 14.1548 18.24 9.12C18.24 4.08521 14.1449 0 9.12 0ZM15.1439 4.2039C16.232 5.52937 16.8849 7.22082 16.9047 9.05074C16.6475 9.00133 14.0756 8.47704 11.4841 8.80348C11.4247 8.67489 11.3753 8.53638 11.3159 8.39792C11.1576 8.02207 10.9796 7.63629 10.8016 7.27029C13.6701 6.1031 14.9758 4.42152 15.1439 4.2039ZM9.12 1.34525C11.0983 1.34525 12.9084 2.08712 14.2834 3.30378C14.1449 3.50161 12.9678 5.07436 10.1982 6.11297C8.92215 3.76867 7.5077 1.84972 7.29007 1.55297C7.87364 1.41449 8.48696 1.34525 9.12 1.34525ZM5.80636 2.07722C6.01407 2.35419 7.39889 4.28304 8.69467 6.57786C5.05458 7.54726 1.83983 7.52748 1.49362 7.52748C1.99809 5.11393 3.63019 3.10594 5.80636 2.07722ZM1.32547 9.12992C1.32547 9.05075 1.32547 8.97163 1.32547 8.89251C1.66178 8.90237 5.44035 8.95185 9.32771 7.78466C9.55525 8.21986 9.76296 8.66497 9.96081 9.11008C9.86185 9.13978 9.75304 9.16948 9.65415 9.19912C5.63818 10.4949 3.50161 14.0361 3.32356 14.3328C2.08711 12.9579 1.32547 11.128 1.32547 9.12992ZM9.12 16.9145C7.31971 16.9145 5.65796 16.3013 4.34239 15.2725C4.48087 14.9857 6.06349 11.9391 10.4553 10.4059C10.4751 10.396 10.485 10.396 10.5048 10.3861C11.6027 13.225 12.0479 15.6088 12.1666 16.2913C11.2269 16.6969 10.1982 16.9145 9.12 16.9145ZM13.4624 15.5792C13.3833 15.1044 12.9678 12.8293 11.949 10.03C14.3922 9.64423 16.5287 10.2773 16.7958 10.3664C16.4595 12.5326 15.2132 14.4021 13.4624 15.5792Z" fill="#C32361"/>
</svg>
