<svg width="32" height="32" viewBox="0 0 32 32" fill="none" xmlns="http://www.w3.org/2000/svg">
<path d="M29.0114 14.4998L16.9519 2.44624C16.787 2.28055 16.591 2.14907 16.3752 2.05936C16.1594 1.96965 15.928 1.92346 15.6943 1.92346C15.4605 1.92346 15.2291 1.96965 15.0133 2.05936C14.7975 2.14907 14.6015 2.28055 14.4367 2.44624L11.9333 4.9496L15.1147 8.12513C15.4891 7.99768 15.8916 7.97792 16.2766 8.06809C16.6616 8.15827 17.0136 8.35476 17.2924 8.63518C17.5711 8.91561 17.7656 9.26869 17.8535 9.65421C17.9414 10.0397 17.9192 10.4422 17.7896 10.8158L20.8488 13.877C21.3058 13.7202 21.8027 13.7247 22.2567 13.8898C22.7108 14.0549 23.0945 14.3706 23.3441 14.7843C23.5936 15.1979 23.6938 15.6847 23.6281 16.1633C23.5623 16.6419 23.3345 17.0835 22.9827 17.4146C22.6308 17.7457 22.1761 17.9462 21.6944 17.9827C21.2126 18.0192 20.7329 17.8895 20.3352 17.6153C19.9374 17.3411 19.6457 16.9388 19.5085 16.4756C19.3714 16.0123 19.3971 15.5161 19.5814 15.0695L16.7291 12.2212V19.7313C17.1597 19.9482 17.503 20.306 17.702 20.7452C17.901 21.1844 17.9437 21.6784 17.823 22.1452C17.7023 22.612 17.4254 23.0234 17.0384 23.311C16.6515 23.5986 16.1777 23.7451 15.6959 23.726C15.2141 23.707 14.7534 23.5237 14.3903 23.2065C14.0272 22.8893 13.7836 22.4574 13.7 21.9825C13.6164 21.5077 13.6979 21.0185 13.9309 20.5964C14.1639 20.1743 14.5344 19.8446 14.9807 19.6623V12.0832C14.7227 11.9772 14.4881 11.8212 14.2905 11.6242C14.093 11.4272 13.9363 11.1932 13.8295 10.9354C13.7227 10.6777 13.6679 10.4014 13.6683 10.1224C13.6686 9.84342 13.7241 9.56726 13.8315 9.30979L10.7112 6.1796L2.44611 14.4427C2.28043 14.6075 2.14895 14.8035 2.05924 15.0193C1.96952 15.2351 1.92334 15.4666 1.92334 15.7003C1.92334 15.934 1.96952 16.1654 2.05924 16.3812C2.14895 16.5971 2.28043 16.793 2.44611 16.9579L14.4997 29.0115C14.6646 29.1772 14.8606 29.3086 15.0764 29.3984C15.2922 29.4881 15.5236 29.5342 15.7573 29.5342C15.9911 29.5342 16.2225 29.4881 16.4383 29.3984C16.6541 29.3086 16.8501 29.1772 17.0149 29.0115L29.0114 17.015C29.1771 16.8502 29.3086 16.6542 29.3983 16.4384C29.488 16.2226 29.5342 15.9912 29.5342 15.7574C29.5342 15.5237 29.488 15.2923 29.3983 15.0765C29.3086 14.8607 29.1771 14.6647 29.0114 14.4998Z" fill="white" fill-opacity="0.5"/>
</svg>
