<svg width="19" height="19" viewBox="0 0 19 19" fill="none" xmlns="http://www.w3.org/2000/svg">
<g clip-path="url(#clip0_274_362)">
<path fill-rule="evenodd" clip-rule="evenodd" d="M9.12755 0C4.08025 0 0 4.11033 0 9.19537C0 13.2601 2.61436 16.7008 6.24116 17.9186C6.6946 18.0102 6.8607 17.7207 6.8607 17.4773C6.8607 17.2641 6.84575 16.5334 6.84575 15.7721C4.30669 16.3202 3.77795 14.6759 3.77795 14.6759C3.36991 13.6102 2.76532 13.3363 2.76532 13.3363C1.93428 12.773 2.82585 12.773 2.82585 12.773C3.74769 12.8339 4.2314 13.7169 4.2314 13.7169C5.0473 15.1174 6.36204 14.7217 6.89097 14.4781C6.96645 13.8843 7.2084 13.4733 7.46529 13.245C5.44021 13.0318 3.30956 12.2402 3.30956 8.70811C3.30956 7.70332 3.67202 6.88125 4.24634 6.24191C4.15573 6.0136 3.8383 5.06953 4.33714 3.80598C4.33714 3.80598 5.10783 3.56235 6.84557 4.74986C7.58955 4.54858 8.35681 4.44618 9.12755 4.44532C9.89823 4.44532 10.6839 4.552 11.4093 4.74986C13.1473 3.56235 13.9179 3.80598 13.9179 3.80598C14.4168 5.06953 14.0992 6.0136 14.0086 6.24191C14.598 6.88125 14.9455 7.70332 14.9455 8.70811C14.9455 12.2402 12.8149 13.0165 10.7747 13.245C11.1072 13.5342 11.3942 14.0822 11.3942 14.95C11.3942 16.1831 11.3793 17.1728 11.3793 17.4771C11.3793 17.7207 11.5455 18.0102 11.9988 17.9188C15.6256 16.7006 18.24 13.2601 18.24 9.19537C18.2549 4.11033 14.1597 0 9.12755 0Z" fill="white"/>
</g>
<defs>
<clipPath id="clip0_274_362">
<rect width="18.24" height="18.24" fill="white"/>
</clipPath>
</defs>
</svg>
