<svg width="19" height="19" viewBox="0 0 19 19" fill="none" xmlns="http://www.w3.org/2000/svg">
<g opacity="0.7" clip-path="url(#clip0_270_250)">
<path fill-rule="evenodd" clip-rule="evenodd" d="M9.12519 0C4.0792 0 0 4.10927 0 9.193C0 13.2567 2.61368 16.6965 6.23955 17.914C6.69288 18.0055 6.85893 17.7162 6.85893 17.4728C6.85893 17.2597 6.84399 16.5292 6.84399 15.768C4.30558 16.316 3.77698 14.6721 3.77698 14.6721C3.36904 13.6067 2.7646 13.3329 2.7646 13.3329C1.93378 12.7697 2.82512 12.7697 2.82512 12.7697C3.74672 12.8306 4.23031 13.7134 4.23031 13.7134C5.046 15.1135 6.3604 14.7179 6.88919 14.4743C6.96465 13.8807 7.20654 13.4698 7.46337 13.2416C5.4388 13.0284 3.30871 12.237 3.30871 8.70586C3.30871 7.70133 3.67107 6.87948 4.24525 6.2403C4.15466 6.01205 3.83731 5.06822 4.33603 3.805C4.33603 3.805 5.10651 3.56143 6.8438 4.74863C7.58759 4.5474 8.35466 4.44504 9.12519 4.44417C9.89568 4.44417 10.6811 4.55083 11.4064 4.74863C13.1439 3.56143 13.9144 3.805 13.9144 3.805C14.4131 5.06822 14.0955 6.01205 14.0049 6.2403C14.5943 6.87948 14.9417 7.70133 14.9417 8.70586C14.9417 12.237 12.8116 13.0131 10.7719 13.2416C11.1044 13.5307 11.3913 14.0785 11.3913 14.9462C11.3913 16.1789 11.3763 17.1683 11.3763 17.4726C11.3763 17.7162 11.5426 18.0055 11.9957 17.9142C15.6216 16.6963 18.2353 13.2567 18.2353 9.193C18.2502 4.10927 14.1561 0 9.12519 0Z" fill="white"/>
</g>
<defs>
<clipPath id="clip0_270_250">
<rect width="18.2353" height="18.2353" fill="white"/>
</clipPath>
</defs>
</svg>
