<svg width="19" height="19" viewBox="0 0 19 19" fill="none" xmlns="http://www.w3.org/2000/svg">
<g opacity="0.7" clip-path="url(#clip0_272_262)">
<path d="M9.11963 7.46179V10.9937H14.0278C13.8123 12.1296 13.1655 13.0914 12.1955 13.738L15.1554 16.0346C16.8799 14.4428 17.8748 12.1048 17.8748 9.32734C17.8748 8.68066 17.8168 8.05878 17.7089 7.46189L9.11963 7.46179Z" fill="white"/>
<path d="M4.00853 10.8558L3.34098 11.3668L0.978027 13.2074C2.47868 16.1838 5.55438 18.24 9.11944 18.24C11.5818 18.24 13.6462 17.4275 15.1552 16.0346L12.1953 13.738C11.3828 14.2852 10.3464 14.6169 9.11944 14.6169C6.74825 14.6169 4.73362 13.0168 4.01226 10.8611L4.00853 10.8558Z" fill="white"/>
<path d="M0.978256 5.03259C0.356472 6.2596 0 7.6442 0 9.11995C0 10.5957 0.356472 11.9803 0.978256 13.2073C0.978256 13.2156 4.01278 10.8527 4.01278 10.8527C3.83038 10.3055 3.72257 9.72518 3.72257 9.11986C3.72257 8.51454 3.83038 7.93422 4.01278 7.38702L0.978256 5.03259Z" fill="white"/>
<path d="M9.11963 3.63142C10.4628 3.63142 11.6566 4.09569 12.6101 4.99112L15.2217 2.37952C13.6381 0.903765 11.5821 0 9.11963 0C5.55456 0 2.47868 2.04785 0.978027 5.03259L4.01246 7.38721C4.73372 5.23155 6.74844 3.63142 9.11963 3.63142Z" fill="white"/>
</g>
<defs>
<clipPath id="clip0_272_262">
<rect width="18.24" height="18.24" fill="white"/>
</clipPath>
</defs>
</svg>
