<svg width="19" height="19" viewBox="0 0 19 19" fill="none" xmlns="http://www.w3.org/2000/svg">
<g opacity="0.7" clip-path="url(#clip0_270_248)">
<path d="M9.11765 1.64189C11.5538 1.64189 11.8423 1.65257 12.8003 1.69531C13.6907 1.73449 14.1715 1.88408 14.4921 2.00873C14.9159 2.17256 15.2222 2.37201 15.5392 2.68899C15.8597 3.00954 16.0556 3.31227 16.2194 3.7361C16.3441 4.05664 16.4937 4.54102 16.5329 5.42785C16.5756 6.38948 16.5863 6.67796 16.5863 9.11052C16.5863 11.5466 16.5756 11.8351 16.5329 12.7932C16.4937 13.6836 16.3441 14.1644 16.2194 14.485C16.0556 14.9088 15.8562 15.2151 15.5392 15.5321C15.2186 15.8526 14.9159 16.0485 14.4921 16.2123C14.1715 16.337 13.6872 16.4866 12.8003 16.5257C11.8387 16.5685 11.5502 16.5792 9.11765 16.5792C6.68153 16.5792 6.39304 16.5685 5.43497 16.5257C4.54458 16.4866 4.06376 16.337 3.74322 16.2123C3.31939 16.0485 3.0131 15.849 2.69612 15.5321C2.37557 15.2115 2.17969 14.9088 2.01585 14.485C1.8912 14.1644 1.74161 13.68 1.70244 12.7932C1.6597 11.8316 1.64901 11.5431 1.64901 9.11052C1.64901 6.6744 1.6597 6.38591 1.70244 5.42785C1.74161 4.53745 1.8912 4.05664 2.01585 3.7361C2.17969 3.31227 2.37914 3.00597 2.69612 2.68899C3.01666 2.36845 3.31939 2.17256 3.74322 2.00873C4.06376 1.88408 4.54814 1.73449 5.43497 1.69531C6.39304 1.65257 6.68153 1.64189 9.11765 1.64189ZM9.11765 0C6.64235 0 6.33249 0.0106847 5.36018 0.0534237C4.39143 0.0961627 3.72541 0.252872 3.14844 0.477252C2.54653 0.712316 2.03722 1.02217 1.53148 1.53148C1.02217 2.03722 0.712316 2.54653 0.477252 3.14488C0.252872 3.72541 0.0961627 4.38787 0.0534237 5.35662C0.0106847 6.33249 0 6.64235 0 9.11765C0 11.5929 0.0106847 11.9028 0.0534237 12.8751C0.0961627 13.8439 0.252872 14.5099 0.477252 15.0869C0.712316 15.6888 1.02217 16.1981 1.53148 16.7038C2.03722 17.2096 2.54653 17.523 3.14488 17.7545C3.72541 17.9789 4.38787 18.1356 5.35662 18.1783C6.32893 18.221 6.63879 18.2317 9.11409 18.2317C11.5894 18.2317 11.8992 18.221 12.8716 18.1783C13.8403 18.1356 14.5063 17.9789 15.0833 17.7545C15.6816 17.523 16.1909 17.2096 16.6967 16.7038C17.2024 16.1981 17.5159 15.6888 17.7474 15.0904C17.9717 14.5099 18.1284 13.8474 18.1712 12.8787C18.2139 11.9064 18.2246 11.5965 18.2246 9.12121C18.2246 6.64591 18.2139 6.33605 18.1712 5.36374C18.1284 4.39499 17.9717 3.72898 17.7474 3.152C17.523 2.54653 17.2131 2.03722 16.7038 1.53148C16.1981 1.02574 15.6888 0.712316 15.0904 0.480813C14.5099 0.256434 13.8474 0.0997243 12.8787 0.0569853C11.9028 0.0106847 11.5929 0 9.11765 0Z" fill="white"/>
<path d="M9.11756 4.4342C6.53185 4.4342 4.43408 6.53198 4.43408 9.11768C4.43408 11.7034 6.53185 13.8012 9.11756 13.8012C11.7033 13.8012 13.801 11.7034 13.801 9.11768C13.801 6.53198 11.7033 4.4342 9.11756 4.4342ZM9.11756 12.1557C7.44006 12.1557 6.07953 10.7952 6.07953 9.11768C6.07953 7.44018 7.44006 6.07965 9.11756 6.07965C10.7951 6.07965 12.1556 7.44018 12.1556 9.11768C12.1556 10.7952 10.7951 12.1557 9.11756 12.1557Z" fill="white"/>
<path d="M15.0799 4.24892C15.0799 4.85439 14.5884 5.34233 13.9865 5.34233C13.381 5.34233 12.8931 4.85083 12.8931 4.24892C12.8931 3.64345 13.3846 3.15552 13.9865 3.15552C14.5884 3.15552 15.0799 3.64702 15.0799 4.24892Z" fill="white"/>
</g>
<defs>
<clipPath id="clip0_270_248">
<rect width="18.2353" height="18.2353" fill="white"/>
</clipPath>
</defs>
</svg>
