<svg width="19" height="19" viewBox="0 0 19 19" fill="none" xmlns="http://www.w3.org/2000/svg">
<g clip-path="url(#clip0_274_360)">
<path d="M9.12 1.64231C11.5568 1.64231 11.8453 1.653 12.8036 1.69575C13.6943 1.73494 14.1752 1.88456 14.4958 2.00925C14.9198 2.17313 15.2261 2.37262 15.5432 2.68969C15.8638 3.01031 16.0598 3.31313 16.2236 3.73706C16.3483 4.05769 16.4979 4.54219 16.5371 5.42925C16.5799 6.39112 16.5906 6.67969 16.5906 9.11287C16.5906 11.5496 16.5799 11.8382 16.5371 12.7965C16.4979 13.6871 16.3483 14.1681 16.2236 14.4887C16.0598 14.9126 15.8603 15.219 15.5432 15.5361C15.2226 15.8567 14.9198 16.0526 14.4958 16.2165C14.1752 16.3412 13.6907 16.4908 12.8036 16.53C11.8418 16.5728 11.5532 16.5834 9.12 16.5834C6.68325 16.5834 6.39469 16.5728 5.43638 16.53C4.54575 16.4908 4.06481 16.3412 3.74419 16.2165C3.32025 16.0526 3.01388 15.8531 2.69681 15.5361C2.37619 15.2154 2.18025 14.9126 2.01638 14.4887C1.89169 14.1681 1.74206 13.6836 1.70288 12.7965C1.66013 11.8346 1.64944 11.5461 1.64944 9.11287C1.64944 6.67613 1.66013 6.38756 1.70288 5.42925C1.74206 4.53862 1.89169 4.05769 2.01638 3.73706C2.18025 3.31313 2.37975 3.00675 2.69681 2.68969C3.01744 2.36906 3.32025 2.17313 3.74419 2.00925C4.06481 1.88456 4.54931 1.73494 5.43638 1.69575C6.39469 1.653 6.68325 1.64231 9.12 1.64231ZM9.12 0C6.64406 0 6.33413 0.0106875 5.36156 0.0534375C4.39256 0.0961875 3.72638 0.252937 3.14925 0.477375C2.54719 0.7125 2.03775 1.02244 1.53188 1.53188C1.02244 2.03775 0.7125 2.54719 0.477375 3.14569C0.252937 3.72638 0.0961875 4.389 0.0534375 5.358C0.0106875 6.33412 0 6.64406 0 9.12C0 11.5959 0.0106875 11.9059 0.0534375 12.8784C0.0961875 13.8474 0.252937 14.5136 0.477375 15.0908C0.7125 15.6928 1.02244 16.2022 1.53188 16.7081C2.03775 17.214 2.54719 17.5275 3.14569 17.7591C3.72638 17.9835 4.389 18.1402 5.358 18.183C6.33056 18.2257 6.6405 18.2364 9.11644 18.2364C11.5924 18.2364 11.9023 18.2257 12.8749 18.183C13.8439 18.1402 14.5101 17.9835 15.0872 17.7591C15.6857 17.5275 16.1951 17.214 16.701 16.7081C17.2069 16.2022 17.5204 15.6928 17.7519 15.0943C17.9764 14.5136 18.1331 13.851 18.1759 12.882C18.2186 11.9094 18.2293 11.5995 18.2293 9.12356C18.2293 6.64763 18.2186 6.33769 18.1759 5.36513C18.1331 4.39613 17.9764 3.72994 17.7519 3.15281C17.5275 2.54719 17.2176 2.03775 16.7081 1.53188C16.2023 1.026 15.6928 0.7125 15.0943 0.480937C14.5136 0.2565 13.851 0.09975 12.882 0.057C11.9059 0.0106875 11.5959 0 9.12 0Z" fill="#FF2845"/>
<path d="M9.12023 4.4353C6.53386 4.4353 4.43555 6.53362 4.43555 9.11999C4.43555 11.7064 6.53386 13.8047 9.12023 13.8047C11.7066 13.8047 13.8049 11.7064 13.8049 9.11999C13.8049 6.53362 11.7066 4.4353 9.12023 4.4353ZM9.12023 12.1588C7.4423 12.1588 6.08142 10.7979 6.08142 9.11999C6.08142 7.44205 7.4423 6.08118 9.12023 6.08118C10.7982 6.08118 12.159 7.44205 12.159 9.11999C12.159 10.7979 10.7982 12.1588 9.12023 12.1588Z" fill="#FF2845"/>
<path d="M15.0839 4.25006C15.0839 4.85569 14.5922 5.34375 13.9902 5.34375C13.3845 5.34375 12.8965 4.85212 12.8965 4.25006C12.8965 3.64444 13.3881 3.15637 13.9902 3.15637C14.5922 3.15637 15.0839 3.648 15.0839 4.25006Z" fill="#FF2845"/>
</g>
<defs>
<clipPath id="clip0_274_360">
<rect width="18.24" height="18.24" fill="white"/>
</clipPath>
</defs>
</svg>
