<svg width="32" height="32" viewBox="0 0 32 32" fill="none" xmlns="http://www.w3.org/2000/svg">
<path d="M27.9261 16.7556C28.4781 16.7556 28.9118 16.3088 28.9118 15.77C28.9118 15.218 28.4781 14.7843 27.9261 14.7843H26.2834V11.8932H27.9261C28.4781 11.8932 28.9118 11.4595 28.9118 10.9075C28.9118 10.3687 28.4781 9.92192 27.9261 9.92192H25.9812C25.3504 7.8324 23.7077 6.18969 21.6181 5.55889V3.61392C21.6181 3.07511 21.1713 2.6283 20.6325 2.6283C20.0937 2.6283 19.6469 3.07511 19.6469 3.61392V5.25663H16.7557V3.61392C16.7557 3.07511 16.3089 2.6283 15.7701 2.6283C15.2313 2.6283 14.7845 3.07511 14.7845 3.61392V5.25663H11.9064V3.61392C11.9064 3.07511 11.4596 2.6283 10.9208 2.6283C10.3689 2.6283 9.93519 3.07511 9.93519 3.61392V5.55889C7.83252 6.18969 6.18981 7.8324 5.55901 9.92192H3.61404C3.07523 9.92192 2.62842 10.3687 2.62842 10.9075C2.62842 11.4595 3.07523 11.8932 3.61404 11.8932H5.25675V14.7843H3.61404C3.07523 14.7843 2.62842 15.218 2.62842 15.77C2.62842 16.3088 3.07523 16.7556 3.61404 16.7556H5.25675V19.6468H3.61404C3.07523 19.6468 2.62842 20.0804 2.62842 20.6324C2.62842 21.1712 3.07523 21.618 3.61404 21.618H5.55901C6.17667 23.7075 7.83252 25.3502 9.93519 25.981V27.926C9.93519 28.4648 10.3689 28.9116 10.9208 28.9116C11.4596 28.9116 11.9064 28.4648 11.9064 27.926V26.2833H14.7976V27.926C14.7976 28.4648 15.2313 28.9116 15.7832 28.9116C16.322 28.9116 16.7689 28.4648 16.7689 27.926V26.2833H19.6469V27.926C19.6469 28.4648 20.0937 28.9116 20.6325 28.9116C21.1713 28.9116 21.6181 28.4648 21.6181 27.926V25.981C23.7077 25.3502 25.3504 23.7075 25.9812 21.618H27.9261C28.4781 21.618 28.9118 21.1712 28.9118 20.6324C28.9118 20.0804 28.4781 19.6468 27.9261 19.6468H26.2834V16.7556H27.9261ZM22.6826 18.74C22.6826 20.9084 20.9085 22.6825 18.7401 22.6825H12.8001C10.6317 22.6825 8.85757 20.9084 8.85757 18.74V12.7999C8.85757 10.6316 10.6317 8.85745 12.8001 8.85745H18.7401C20.9085 8.85745 22.6826 10.6316 22.6826 12.7999V18.74V18.74Z" fill="white" fill-opacity="0.5"/>
<path d="M13.1677 21.3552H18.385C20.0277 21.3552 21.3681 20.0279 21.3681 18.372V13.1548C21.3681 11.5121 20.0408 10.1716 18.385 10.1716H13.1677C11.525 10.1716 10.1846 11.4989 10.1846 13.1548V18.372C10.1846 20.0279 11.5119 21.3552 13.1677 21.3552Z" fill="white" fill-opacity="0.5"/>
</svg>
