<svg width="32" height="32" viewBox="0 0 32 32" fill="none" xmlns="http://www.w3.org/2000/svg">
<path d="M3.94238 3.94226H27.5963V27.5961H3.94238V3.94226ZM10.1581 23.7064C10.6837 24.8234 11.7219 25.7432 13.4959 25.7432C15.4671 25.7432 16.8206 24.692 16.8206 22.3923V14.7968H14.5866V22.3397C14.5866 23.4698 14.1267 23.7589 13.4039 23.7589C12.6418 23.7589 12.3264 23.2333 11.9716 22.6157L10.1581 23.7064ZM18.0164 23.4698C18.6735 24.7577 20.0007 25.7432 22.077 25.7432C24.1796 25.7432 25.7565 24.6525 25.7565 22.642C25.7565 20.7891 24.6921 19.9612 22.7998 19.1464L22.2479 18.9099C21.2886 18.5025 20.8812 18.2266 20.8812 17.5695C20.8812 17.0307 21.2886 16.6102 21.9456 16.6102C22.5764 16.6102 22.9969 16.8862 23.378 17.5695L25.0995 16.4262C24.3767 15.1647 23.3517 14.6785 21.9456 14.6785C19.9613 14.6785 18.6866 15.94 18.6866 17.6089C18.6866 19.4224 19.7511 20.2766 21.3543 20.9599L21.9062 21.1964C22.9312 21.6432 23.5357 21.9192 23.5357 22.6814C23.5357 23.3121 22.9443 23.7721 22.0245 23.7721C20.9338 23.7721 20.303 23.207 19.8299 22.4186L18.0164 23.4698Z" fill="white" fill-opacity="0.5"/>
</svg>
