<svg width="19" height="19" viewBox="0 0 19 19" fill="none" xmlns="http://www.w3.org/2000/svg">
<g opacity="0.7" clip-path="url(#clip0_270_249)">
<path d="M16.8855 0H1.34628C0.601907 0 0 0.587661 0 1.31422V16.9175C0 17.6441 0.601907 18.2353 1.34628 18.2353H16.8855C17.6298 18.2353 18.2353 17.6441 18.2353 16.9211V1.31422C18.2353 0.587661 17.6298 0 16.8855 0ZM5.41004 15.5392H2.70324V6.83467H5.41004V15.5392ZM4.05664 5.64867C3.18762 5.64867 2.48598 4.94704 2.48598 4.08157C2.48598 3.21611 3.18762 2.51448 4.05664 2.51448C4.9221 2.51448 5.62374 3.21611 5.62374 4.08157C5.62374 4.94347 4.9221 5.64867 4.05664 5.64867ZM15.5392 15.5392H12.8359V11.308C12.8359 10.3001 12.8181 9.00012 11.4291 9.00012C10.0223 9.00012 9.80859 10.1006 9.80859 11.2368V15.5392H7.10892V6.83467H9.70175V8.02424H9.73736C10.0971 7.34042 10.9804 6.61742 12.2946 6.61742C15.0334 6.61742 15.5392 8.41958 15.5392 10.7631V15.5392Z" fill="white"/>
</g>
<defs>
<clipPath id="clip0_270_249">
<rect width="18.2353" height="18.2353" fill="white"/>
</clipPath>
</defs>
</svg>
