<svg width="19" height="19" viewBox="0 0 19 19" fill="none" xmlns="http://www.w3.org/2000/svg">
<g clip-path="url(#clip0_274_361)">
<path d="M16.8935 0H1.34647C0.989362 0 0.646883 0.14186 0.394371 0.394371C0.14186 0.646883 0 0.989362 0 1.34647V16.8935C0 17.2506 0.14186 17.5931 0.394371 17.8456C0.646883 18.0981 0.989362 18.24 1.34647 18.24H16.8935C17.2506 18.24 17.5931 18.0981 17.8456 17.8456C18.0981 17.5931 18.24 17.2506 18.24 16.8935V1.34647C18.24 0.989362 18.0981 0.646883 17.8456 0.394371C17.5931 0.14186 17.2506 0 16.8935 0ZM5.43653 15.5382H2.6942V6.82733H5.43653V15.5382ZM4.06347 5.6202C3.7524 5.61845 3.44882 5.52459 3.19104 5.35047C2.93326 5.17634 2.73284 4.92976 2.61507 4.64184C2.4973 4.35392 2.46745 4.03757 2.5293 3.73271C2.59116 3.42784 2.74193 3.14813 2.9626 2.92887C3.18327 2.70962 3.46394 2.56064 3.76919 2.50075C4.07445 2.44086 4.39061 2.47273 4.67776 2.59235C4.96492 2.71197 5.21021 2.91397 5.38267 3.17286C5.55514 3.43175 5.64705 3.73593 5.6468 4.047C5.64973 4.25527 5.61071 4.46199 5.53205 4.65485C5.45339 4.84771 5.33671 5.02276 5.18895 5.16957C5.0412 5.31638 4.86541 5.43193 4.67204 5.50935C4.47868 5.58677 4.27171 5.62447 4.06347 5.6202ZM15.5445 15.5458H12.8035V10.7869C12.8035 9.38347 12.2069 8.95027 11.4367 8.95027C10.6235 8.95027 9.82553 9.56333 9.82553 10.8224V15.5458H7.0832V6.83367H9.7204V8.0408H9.75587C10.0206 7.505 10.9478 6.5892 12.3627 6.5892C13.8928 6.5892 15.5458 7.4974 15.5458 10.1574L15.5445 15.5458Z" fill="#0A66C2"/>
</g>
<defs>
<clipPath id="clip0_274_361">
<rect width="18.24" height="18.24" fill="white"/>
</clipPath>
</defs>
</svg>
