<svg width="32" height="32" viewBox="0 0 32 32" fill="none" xmlns="http://www.w3.org/2000/svg">
<path fill-rule="evenodd" clip-rule="evenodd" d="M25.291 23.758C24.948 23.4755 24.5975 23.1998 24.2766 22.8932C23.9192 22.5521 23.6947 22.1395 23.7436 21.617C23.7717 21.3164 23.7023 21.0578 23.3398 20.9573C23.425 20.7368 23.5049 20.5889 23.5372 20.4312C23.5731 20.2554 23.5712 20.0706 23.5762 19.8896C23.6266 17.9862 22.939 16.3176 21.9206 14.7612C21.4516 14.045 20.9618 13.3415 20.4619 12.6464C19.6799 11.5594 19.3995 10.3382 19.3854 9.01902C19.3774 8.41005 19.3082 7.80342 19.1788 7.20828C18.9279 6.05399 18.3095 5.15139 17.1878 4.66732C16.3284 4.29619 15.4388 4.22261 14.5313 4.46016C13.2124 4.80511 12.4149 5.7853 12.4298 7.15248C12.444 8.46825 12.5095 9.78575 12.606 11.0985C12.6611 11.8424 12.5464 12.4844 12.0528 13.0745C11.5781 13.6419 11.1534 14.254 10.7422 14.8704C10.5073 15.2228 10.2994 15.6067 10.1541 16.0038C9.75855 17.086 9.39487 18.1773 8.76364 19.1571C8.52973 19.5202 8.50316 19.9265 8.66924 20.3418C8.71224 20.4494 8.73861 20.6148 8.68625 20.7014C8.23638 21.4481 7.72861 22.1051 6.76256 22.2484C6.00272 22.3614 5.96526 22.4995 5.98838 23.2829C6.00749 23.9206 6.00004 24.5643 5.93487 25.198C5.8655 25.8774 5.9364 26.062 6.59266 26.2248C8.107 26.6009 9.63376 26.9218 11.0822 27.5347C11.6989 27.7955 12.3177 27.7049 12.8144 27.1977C13.3328 26.6682 13.9879 26.461 14.6956 26.4603C15.8967 26.4593 17.0982 26.5172 18.2999 26.5308C18.6252 26.5346 18.8119 26.6556 18.9428 26.951C19.1033 27.3128 19.3747 27.5786 19.7923 27.6249C20.5936 27.7132 21.3236 27.5943 21.9308 26.9829C22.6795 26.2284 23.5429 25.6326 24.5327 25.2196C24.8159 25.1013 25.0827 24.9153 25.3168 24.7135C25.7432 24.3462 25.7206 24.1123 25.291 23.758ZM15.4686 8.37862C15.6135 7.88155 15.9535 7.55896 16.4706 7.46112C16.9056 7.37894 17.2738 7.5926 17.5483 8.08145C17.8437 8.60853 17.9408 9.1593 17.6886 9.73606C17.4816 10.2089 17.3845 10.2534 16.9006 10.093C16.81 10.063 16.7215 10.0275 16.561 9.96845C16.6963 9.85493 16.7816 9.77065 16.879 9.70434C17.0957 9.5568 17.1565 9.34926 17.1363 9.10273C17.1097 8.77899 16.8551 8.49233 16.5941 8.49596C16.36 8.49921 16.1618 8.71899 16.1354 9.05304C16.119 9.26116 16.1536 9.47329 16.1685 9.73893C15.5099 9.54342 15.2682 9.06527 15.4686 8.37862ZM13.032 7.94844C13.2755 7.57998 13.643 7.50622 14.0069 7.75275C14.3946 8.01571 14.6847 8.75721 14.5349 9.20058C14.4804 9.36187 14.3195 9.48724 14.207 9.62885L14.0915 9.55737C14.0476 9.31792 14.0388 9.06336 13.9469 8.84397C13.8888 8.70484 13.7066 8.6177 13.5801 8.50724C13.4613 8.64847 13.2566 8.78301 13.2443 8.93303C13.2275 9.14019 13.3355 9.36875 13.4295 9.5696C13.489 9.69593 13.6208 9.78842 13.7569 9.93577L13.3896 10.2243C12.8128 9.70835 12.6414 8.53877 13.032 7.94844ZM20.2299 20.2187C20.1911 20.7163 20.1343 20.7372 19.634 20.8107C19.2788 20.8627 19.1832 20.9552 19.1652 21.3772C19.1456 21.8709 19.1449 22.3651 19.1629 22.8588C19.1746 23.1971 19.0603 23.4623 18.8275 23.6984C17.5349 25.0086 15.9906 25.6295 14.1431 25.4042C13.3462 25.3069 12.8253 24.8219 12.4046 24.1354C12.5919 24.0661 12.7305 24.0194 12.8656 23.9646C13.4622 23.7219 13.5738 23.2087 13.0974 22.765C12.7373 22.4292 12.3356 22.1376 11.9494 21.8301C11.576 21.5329 11.1976 21.2419 10.8236 20.9455C10.5048 20.6926 10.3831 20.3668 10.3754 19.954C10.3575 18.9637 10.5612 18.0372 10.9751 17.1357C11.3444 16.3314 11.6304 15.489 11.9764 14.6733C12.155 14.2525 12.3406 13.8219 12.6028 13.4525C12.8549 13.0982 13.0106 12.7514 12.9827 12.3173C12.9667 12.0735 12.9797 11.8277 12.9797 11.5829L13.1148 11.5157C13.3328 11.7039 13.5547 11.8881 13.7689 12.0811C14.542 12.7779 15.2772 12.8098 16.1232 12.2092C16.484 11.9529 16.8742 11.7371 17.2559 11.5113C17.3509 11.4551 17.4646 11.4304 17.6255 11.3702C18.0366 12.3384 18.44 13.2876 18.8438 14.2368C19.0487 14.7192 19.213 15.2243 19.4676 15.6791C19.978 16.5917 20.2496 17.5545 20.2454 18.5977C20.2431 19.1385 20.2716 19.6813 20.2299 20.2187Z" fill="white" fill-opacity="0.5"/>
</svg>
