<svg width="32" height="32" viewBox="0 0 32 32" fill="none" xmlns="http://www.w3.org/2000/svg">
<path d="M18.1948 2.16553C17.9973 2.16553 17.8139 2.20783 17.6447 2.26427C18.0044 2.50406 18.2018 2.82145 18.3005 3.18111C18.3076 3.23049 18.3217 3.26575 18.3288 3.31512C18.3358 3.35742 18.3429 3.39975 18.3429 3.44207C18.3711 4.0627 18.1806 4.14026 18.0466 4.507C17.8421 4.97955 17.8985 5.48735 18.1454 5.8964C18.1665 5.94577 18.1948 6.00219 18.23 6.05156C17.962 4.26725 19.4502 3.99925 19.7252 3.44207C19.7464 2.95541 19.3443 2.63102 19.027 2.40534C18.7237 2.22197 18.4487 2.16553 18.1948 2.16553ZM20.4375 2.56755C20.4093 2.72976 20.4305 2.68744 20.4234 2.77208C20.4164 2.8285 20.4164 2.89903 20.4093 2.95545C20.3953 3.01188 20.3811 3.06829 20.36 3.12472C20.3459 3.18113 20.3247 3.23755 20.3036 3.29397C20.2753 3.3504 20.2542 3.39977 20.226 3.45619C20.2048 3.48444 20.1907 3.51261 20.1696 3.54082C20.1555 3.56196 20.1413 3.58312 20.1272 3.6043C20.092 3.65366 20.0567 3.70304 20.0214 3.74535C19.9791 3.78765 19.9439 3.83703 19.8945 3.8723V3.87934C19.8522 3.91458 19.8099 3.95692 19.7605 3.99218C19.6124 4.10502 19.4431 4.18965 19.2879 4.29544C19.2386 4.33069 19.1892 4.35892 19.1469 4.40123C19.0975 4.43648 19.0552 4.47176 19.0129 4.51407C18.9635 4.55637 18.9283 4.59871 18.8859 4.64808C18.8507 4.69037 18.8084 4.73976 18.7802 4.78913C18.7449 4.8385 18.7096 4.88787 18.6814 4.93724C18.6532 4.99365 18.632 5.04303 18.6038 5.09945C18.5827 5.15587 18.5615 5.20524 18.5474 5.26166C18.5263 5.32514 18.5122 5.38156 18.498 5.43799C18.491 5.4662 18.491 5.50145 18.4839 5.52966C18.4769 5.55787 18.4769 5.58608 18.4699 5.6143C18.4699 5.67072 18.4628 5.73419 18.4628 5.79061C18.4628 5.83291 18.4628 5.87525 18.4699 5.91756C18.4699 5.97398 18.4769 6.03041 18.491 6.09388C18.4981 6.1503 18.5122 6.20672 18.5263 6.26314C18.5474 6.31956 18.5615 6.37599 18.5827 6.43241C18.5968 6.46769 18.618 6.50293 18.6321 6.53114L17.0099 5.90347C16.7349 5.82589 16.4669 5.75537 16.1918 5.69189C16.0437 5.65665 15.8956 5.62137 15.7475 5.5861C15.3244 5.50147 14.8942 5.438 14.4639 5.39568C14.4499 5.39568 14.4428 5.3886 14.4287 5.3886C14.0055 5.34631 13.5894 5.32514 13.1663 5.32514C12.8559 5.32514 12.5456 5.33924 12.2423 5.36038C11.8121 5.38863 11.3819 5.44501 10.9517 5.51554C10.8459 5.52965 10.7401 5.55078 10.6343 5.57197C10.4157 5.61426 10.2041 5.66365 9.9996 5.71302C9.89381 5.74123 9.78802 5.76944 9.68223 5.79765C9.57644 5.83994 9.4777 5.88933 9.37896 5.93165C9.30138 5.96689 9.2238 6.00217 9.14622 6.03744C9.13213 6.04451 9.118 6.04451 9.11096 6.05155C9.04044 6.08679 8.97696 6.11502 8.91349 6.15028C8.89233 6.15731 8.87822 6.16439 8.86412 6.17142C8.78654 6.20666 8.70896 6.24899 8.64548 6.28426C8.59611 6.30539 8.54674 6.33363 8.50443 6.35479C8.48327 6.3689 8.45505 6.383 8.44095 6.39003C8.37748 6.42528 8.314 6.46056 8.25758 6.49582C8.19411 6.53107 8.13769 6.56636 8.08832 6.60162C8.03895 6.63686 7.98958 6.66509 7.94726 6.70035C7.9402 6.70742 7.93317 6.70742 7.92611 6.71445C7.88379 6.7427 7.83442 6.77793 7.7921 6.8132C7.7921 6.8132 7.78504 6.82023 7.77801 6.8273C7.74275 6.85555 7.70748 6.88372 7.67222 6.91193C7.65813 6.919 7.644 6.93307 7.6299 6.94014C7.59464 6.96839 7.55938 7.00362 7.52412 7.03183C7.51706 7.04593 7.50296 7.05296 7.49589 7.06008C7.45358 7.10237 7.41126 7.13765 7.36895 7.17997C7.36189 7.17997 7.36188 7.187 7.35485 7.19408C7.31253 7.22932 7.27022 7.27167 7.2279 7.31398C7.22084 7.32105 7.22084 7.32808 7.21381 7.32808C7.17855 7.36333 7.14328 7.39861 7.10802 7.44092C7.09392 7.45502 7.07276 7.46917 7.05865 7.48322C7.02339 7.52552 6.98107 7.56786 6.93875 7.61017C6.93169 7.62428 6.9176 7.63131 6.91054 7.64541C6.85411 7.70183 6.80474 7.75826 6.74832 7.81468C6.74126 7.82171 6.73423 7.82878 6.72716 7.83582C6.61432 7.95571 6.49442 8.0756 6.36748 8.1814C6.24053 8.29423 6.10653 8.40002 5.97252 8.49171C5.83147 8.59045 5.69747 8.67508 5.54936 8.75972C5.40831 8.8373 5.2602 8.90781 5.10506 8.97129C4.95695 9.03477 4.8018 9.09119 4.64666 9.14056C4.35044 9.20403 4.04716 9.32393 3.78623 9.34508C3.7298 9.34508 3.66633 9.35919 3.60991 9.36622C3.54643 9.38032 3.49001 9.39447 3.43359 9.40852C3.37717 9.42966 3.32075 9.45081 3.26433 9.47199C3.20791 9.49313 3.15149 9.52136 3.09506 9.54957C3.0457 9.58482 2.98927 9.61305 2.93991 9.64831C2.89054 9.68355 2.84117 9.72588 2.79885 9.7682C2.74948 9.80345 2.70011 9.85283 2.6578 9.89515C2.61548 9.94452 2.57316 9.98684 2.5379 10.0362C2.50264 10.0926 2.46032 10.142 2.43211 10.1984C2.39685 10.2478 2.36158 10.3042 2.33337 10.3606C2.30515 10.4241 2.27695 10.4805 2.25579 10.544C2.23464 10.6004 2.21348 10.6639 2.19232 10.7274C2.17822 10.7838 2.16409 10.8402 2.15706 10.8966C2.15706 10.9037 2.15 10.9107 2.15 10.9178C2.1359 10.9812 2.1359 11.0659 2.12884 11.1082C2.12178 11.1576 2.11475 11.1999 2.11475 11.2493C2.11475 11.2775 2.11475 11.3127 2.12181 11.3409C2.12887 11.3903 2.1359 11.4326 2.15003 11.4749C2.16412 11.5172 2.17825 11.5596 2.19939 11.6019V11.609C2.22055 11.6512 2.24877 11.6936 2.27697 11.7359C2.3052 11.7782 2.3334 11.8205 2.36866 11.8629C2.40392 11.8981 2.44624 11.9404 2.48856 11.9757C2.53087 12.018 2.57319 12.0533 2.62256 12.0885C2.79182 12.2366 2.83414 12.286 3.05279 12.3989C3.08805 12.42 3.12332 12.4341 3.16564 12.4553C3.1727 12.4553 3.17973 12.4623 3.18679 12.4623C3.18679 12.4764 3.18679 12.4834 3.19385 12.4976C3.20091 12.554 3.21501 12.6104 3.22911 12.6668C3.24321 12.7303 3.26438 12.7867 3.28554 12.8361C3.3067 12.8784 3.3208 12.9207 3.34196 12.963C3.34902 12.9771 3.35605 12.9912 3.36312 12.9983C3.39134 13.0547 3.41954 13.1041 3.44775 13.1534C3.48302 13.2028 3.51827 13.2522 3.55354 13.3015C3.5888 13.3438 3.63112 13.3932 3.67343 13.4355C3.71575 13.4778 3.75807 13.5131 3.80744 13.5554C3.80744 13.5554 3.8145 13.5625 3.82153 13.5625C3.86385 13.5977 3.90617 13.633 3.94848 13.6612C3.99785 13.6965 4.04722 13.7247 4.10364 13.7529C4.15301 13.7811 4.20943 13.8093 4.26585 13.8305C4.30817 13.8516 4.35754 13.8657 4.40691 13.8798C4.41397 13.8869 4.421 13.8869 4.43513 13.8939C4.46335 13.901 4.4986 13.908 4.52681 13.9151C4.50565 14.2959 4.49859 14.6556 4.55503 14.7826C4.6185 14.9236 4.92882 14.4934 5.23913 13.9997C5.19681 14.4864 5.1686 15.0576 5.23913 15.2269C5.31671 15.4032 5.73985 14.8531 6.10659 14.2466C11.1071 13.0899 15.6701 16.5458 16.1496 21.426C16.058 20.6643 15.12 20.2412 14.6898 20.347C14.4782 20.8689 14.1185 21.5389 13.5401 21.955C13.5895 21.4895 13.5684 21.0099 13.4696 20.5445C13.3145 21.1933 13.0112 21.7998 12.5951 22.3217C11.9251 22.3711 11.2551 22.0467 10.9024 21.56C10.8742 21.5389 10.8672 21.4966 10.846 21.4684C10.8249 21.419 10.8037 21.3696 10.7896 21.3202C10.7684 21.2709 10.7543 21.2215 10.7473 21.1721C10.7402 21.1228 10.7402 21.0734 10.7402 21.017V20.9112C10.7473 20.8618 10.7614 20.8125 10.7755 20.7631C10.7896 20.7137 10.8037 20.6643 10.8248 20.615C10.8531 20.5656 10.8742 20.5162 10.9095 20.4669C11.0294 20.1283 11.0294 19.8533 10.8107 19.6911C10.7684 19.6628 10.7261 19.6417 10.6767 19.6205C10.6485 19.6135 10.6133 19.5994 10.585 19.5923C10.5639 19.5853 10.5498 19.5782 10.5286 19.5712C10.4793 19.5571 10.4299 19.5429 10.3805 19.536C10.3311 19.5218 10.2818 19.5148 10.2324 19.5148C10.183 19.5077 10.1266 19.5007 10.0772 19.5007C10.042 19.5007 10.0067 19.5077 9.97146 19.5077C9.91504 19.5077 9.86567 19.5148 9.8163 19.5289C9.76693 19.5359 9.71756 19.543 9.66819 19.5571C9.61882 19.5712 9.56945 19.5853 9.52008 19.6065C9.47072 19.6276 9.4284 19.6488 9.37903 19.6699C9.33671 19.6911 9.2944 19.7193 9.24503 19.7405C7.60173 20.8125 8.58207 23.3232 9.70343 24.0496C9.28027 24.1271 8.85008 24.2188 8.73016 24.3105C8.7231 24.3176 8.71607 24.3246 8.71607 24.3246C9.01933 24.508 9.33671 24.6631 9.66816 24.7971C10.1195 24.9452 10.5991 25.0792 10.8107 25.1357V25.1427C11.3961 25.2626 11.9885 25.3049 12.588 25.2696C15.7123 25.051 18.2723 22.6743 18.7379 19.5429C18.752 19.6063 18.7662 19.6628 18.7803 19.7262C18.8014 19.8532 18.8296 19.9872 18.8437 20.1212V20.1282C18.8578 20.1917 18.8649 20.2552 18.872 20.3116V20.3398C18.879 20.4033 18.886 20.4668 18.886 20.5232C18.8931 20.6008 18.9001 20.6783 18.9001 20.7559V20.8688C18.9001 20.904 18.9072 20.9464 18.9072 20.9816C18.9072 21.0239 18.9001 21.0662 18.9001 21.1086V21.2073C18.9001 21.2567 18.8931 21.299 18.8931 21.3484C18.8931 21.3766 18.8931 21.4048 18.886 21.44C18.886 21.4894 18.879 21.5388 18.879 21.5952C18.8719 21.6163 18.8719 21.6375 18.8719 21.6587C18.8648 21.7151 18.8578 21.7645 18.8507 21.8209C18.8507 21.842 18.8507 21.8632 18.8437 21.8844C18.8366 21.9549 18.8225 22.0184 18.8155 22.0889V22.0959V22.103C18.8014 22.1664 18.7872 22.237 18.7731 22.3004V22.3216C18.759 22.385 18.7449 22.4485 18.7308 22.512C18.7308 22.519 18.7238 22.5331 18.7238 22.5402C18.7097 22.6037 18.6955 22.6672 18.6744 22.7306V22.7518C18.6532 22.8223 18.6321 22.8858 18.618 22.9492C18.6109 22.9563 18.6109 22.9633 18.6109 22.9633C18.5898 23.0339 18.5686 23.1044 18.5474 23.1749C18.5192 23.2455 18.4981 23.3089 18.4699 23.3795C18.4416 23.45 18.4205 23.5205 18.3923 23.584C18.3641 23.6545 18.3359 23.718 18.3076 23.7885H18.3006C18.2724 23.852 18.2442 23.9225 18.2089 23.986C18.2018 24.0071 18.1948 24.0212 18.1877 24.0354C18.1807 24.0424 18.1807 24.0495 18.1736 24.0565C17.7152 24.9804 17.0381 25.7914 16.1919 26.4262C16.1354 26.4614 16.079 26.5038 16.0226 26.5461C16.0085 26.5602 15.9873 26.5672 15.9732 26.5813C15.9239 26.6166 15.8745 26.6519 15.8181 26.6871L15.8392 26.7294H15.8463C15.945 26.7153 16.0438 26.7012 16.1425 26.6871H16.1496C16.3329 26.6589 16.5163 26.6236 16.6997 26.5884C16.749 26.5814 16.8055 26.5673 16.8548 26.5531C16.8901 26.5461 16.9183 26.539 16.9536 26.532C17.0029 26.525 17.0523 26.5109 17.1017 26.5038C17.144 26.4897 17.1863 26.4827 17.2286 26.4685C17.9339 26.2993 18.618 26.0665 19.2739 25.7915C18.1525 27.3219 16.6503 28.5561 14.8941 29.3672C15.7052 29.3108 16.5162 29.1768 17.299 28.9511C20.1412 28.1118 22.5319 26.2006 23.9639 23.6264C23.6748 25.2556 23.0259 26.8072 22.0668 28.1612C22.7509 27.7098 23.3786 27.1879 23.9498 26.5955C25.5296 24.9452 26.5664 22.8505 26.919 20.6009C27.1588 21.7152 27.2293 22.8648 27.1235 24.0003C32.2158 16.8983 27.5467 9.53534 25.5931 7.59595C25.586 7.58184 25.579 7.57481 25.579 7.5607C25.572 7.56774 25.572 7.56773 25.572 7.57481C25.572 7.56777 25.572 7.56778 25.5649 7.5607C25.5649 7.64533 25.5578 7.72996 25.5508 7.8146C25.5296 7.97681 25.5085 8.13197 25.4803 8.28711C25.445 8.44226 25.4027 8.59742 25.3604 8.75259C25.311 8.90069 25.2546 9.05585 25.1911 9.20396C25.1276 9.34501 25.0571 9.49312 24.9795 9.63419C24.902 9.7682 24.8173 9.90925 24.7256 10.0362C24.634 10.1702 24.5352 10.2972 24.4365 10.4171C24.3307 10.544 24.2178 10.6569 24.105 10.7697C24.0345 10.8332 23.971 10.8896 23.9005 10.946C23.844 10.9954 23.7947 11.0377 23.7383 11.0871C23.6113 11.1858 23.4844 11.2775 23.3433 11.3621C23.2093 11.4467 23.0683 11.5314 22.9272 11.6019C22.7791 11.6724 22.631 11.7359 22.4829 11.7994C22.3348 11.8558 22.1796 11.9052 22.0245 11.9475C21.8693 11.9898 21.7071 12.0251 21.552 12.0533C21.3897 12.0815 21.2275 12.0956 21.0724 12.1097C20.9595 12.1168 20.8467 12.1238 20.7338 12.1238C20.5716 12.1238 20.4094 12.1097 20.2543 12.0956C20.092 12.0814 19.9298 12.0603 19.7747 12.025C19.6125 11.9968 19.4573 11.9545 19.3021 11.9051H19.2951C19.4502 11.891 19.6054 11.8769 19.7605 11.8487C19.9228 11.8205 20.0779 11.7852 20.2331 11.7429C20.3882 11.7006 20.5434 11.6512 20.6915 11.5948C20.8466 11.5384 20.9947 11.4679 21.1358 11.3973C21.2839 11.3268 21.4179 11.2492 21.5589 11.1646C21.6929 11.0729 21.8269 10.9812 21.9539 10.8825C22.0808 10.7838 22.2007 10.678 22.3136 10.5651C22.4335 10.4593 22.5392 10.3394 22.645 10.2195C22.7508 10.0926 22.8496 9.96564 22.9413 9.8387C22.9553 9.81756 22.9695 9.78934 22.9836 9.76818C23.0541 9.65533 23.1246 9.54249 23.1881 9.42964C23.2657 9.28859 23.3362 9.14754 23.3997 8.99941C23.4632 8.8513 23.5196 8.70319 23.5689 8.54804C23.6183 8.39993 23.6536 8.24477 23.6888 8.08963C23.7171 7.92742 23.7453 7.77225 23.7594 7.61708C23.7735 7.45487 23.7876 7.29266 23.7876 7.1375C23.7876 7.02465 23.7805 6.91181 23.7735 6.79897C23.7594 6.63676 23.7382 6.48159 23.7171 6.32645C23.6889 6.16424 23.6536 6.00907 23.6113 5.8539C23.5619 5.7058 23.5126 5.55065 23.4561 5.40254C23.3997 5.25443 23.3292 5.10632 23.2587 4.96527C23.1811 4.82422 23.1035 4.68316 23.0189 4.54918C22.9272 4.41518 22.8355 4.28823 22.7368 4.16128C22.631 4.04138 22.5252 3.92149 22.4123 3.80159C22.3559 3.74518 22.2924 3.6817 22.229 3.62528C21.9116 3.37843 21.5801 3.1457 21.2486 2.93411C21.1993 2.9059 21.157 2.88475 21.1076 2.86359C20.8749 2.71548 20.6562 2.63807 20.4375 2.56755Z" fill="white" fill-opacity="0.5"/>
</svg>
