<svg width="32" height="32" viewBox="0 0 32 32" fill="none" xmlns="http://www.w3.org/2000/svg">
<path d="M15.6688 1.97119C8.66327 1.97119 9.10087 5.02451 9.10087 5.02451V8.18821H15.7949V9.13831H6.4536C6.4536 9.13831 1.97119 8.62778 1.97119 15.7338C1.97119 22.8398 5.88394 22.5875 5.88394 22.5875H8.21779V19.2897C8.18728 18.772 8.26524 18.2535 8.44666 17.7676C8.62809 17.2816 8.90899 16.8389 9.27138 16.4678C9.63377 16.0967 10.0697 15.8054 10.5511 15.6124C11.0326 15.4195 11.5491 15.3293 12.0675 15.3474H18.7004C19.1864 15.369 19.6716 15.2909 20.1263 15.1181C20.581 14.9452 20.9956 14.6812 21.3445 14.3423C21.6934 14.0033 21.9694 13.5966 22.1553 13.1471C22.3413 12.6976 22.4334 12.2148 22.4259 11.7284V5.65331C22.4259 5.65331 22.9916 1.97119 15.6688 1.97119ZM11.9827 4.09807C12.2219 4.0969 12.4561 4.16677 12.6556 4.29882C12.8551 4.43088 13.0109 4.61918 13.1033 4.83987C13.1956 5.06055 13.2204 5.30369 13.1744 5.53847C13.1285 5.77325 13.0139 5.9891 12.8451 6.15868C12.6764 6.32826 12.4611 6.44393 12.2265 6.49103C11.992 6.53814 11.7487 6.51456 11.5276 6.42328C11.3065 6.332 11.1174 6.17713 10.9844 5.9783C10.8513 5.77947 10.7803 5.54562 10.7803 5.30638C10.7798 5.14806 10.8105 4.99118 10.8707 4.84473C10.9308 4.69829 11.0193 4.56514 11.131 4.45291C11.2426 4.34068 11.3753 4.25157 11.5215 4.19069C11.6677 4.1298 11.8244 4.09832 11.9827 4.09807ZM15.8718 29.5673C22.8773 29.5673 22.4397 26.514 22.4397 26.514V23.3503H15.7456V22.4002H25.087C25.087 22.4002 29.5674 22.9108 29.5674 15.8047C29.5674 8.69874 25.6547 8.95105 25.6547 8.95105H23.3228V12.2488C23.3533 12.7666 23.2753 13.285 23.0939 13.771C22.9125 14.2569 22.6316 14.6996 22.2692 15.0707C21.9068 15.4418 21.4709 15.7332 20.9894 15.9261C20.5079 16.119 19.9915 16.2093 19.4731 16.1911H12.8402C12.3542 16.1695 11.8689 16.2476 11.4142 16.4204C10.9595 16.5933 10.545 16.8573 10.1961 17.1963C9.84713 17.5352 9.57121 17.942 9.38525 18.3915C9.19928 18.841 9.1072 19.3237 9.11467 19.8101V25.8951C9.11467 25.8951 8.54895 29.5673 15.8718 29.5673ZM19.5579 27.4405C19.3186 27.4416 19.0844 27.3718 18.885 27.2397C18.6855 27.1077 18.5297 26.9194 18.4373 26.6987C18.3449 26.478 18.3202 26.2348 18.3661 26.0001C18.4121 25.7653 18.5267 25.5494 18.6954 25.3799C18.8642 25.2103 19.0795 25.0946 19.314 25.0475C19.5486 25.0004 19.7918 25.024 20.013 25.1153C20.2341 25.2065 20.4232 25.3614 20.5562 25.5602C20.6892 25.7591 20.7603 25.9929 20.7603 26.2322C20.7608 26.3905 20.7301 26.5474 20.6699 26.6938C20.6097 26.8403 20.5213 26.9734 20.4096 27.0856C20.2979 27.1979 20.1652 27.287 20.0191 27.3479C19.8729 27.4087 19.7162 27.4402 19.5579 27.4405Z" fill="white" fill-opacity="0.5"/>
</svg>
