<svg width="32" height="32" viewBox="0 0 32 32" fill="none" xmlns="http://www.w3.org/2000/svg">
<g clip-path="url(#clip0_244_90)">
<path d="M9.19128 16.8292C8.89096 17.3296 8.44854 17.7342 8.21626 18.3251C7.73105 19.3716 7.9188 21.6371 7.61272 21.641C7.25542 21.8123 6.69231 20.7835 6.45217 20.1702C5.84429 18.6192 5.73136 16.1215 6.26623 14.3362C7.00685 11.9809 7.05304 12.1041 6.03416 10.9952C5.0921 9.62024 4.64384 7.38986 4.0378 5.80954C3.10881 3.74284 0.91884 2.00596 2.08797 1.22243C2.50855 0.869927 3.92108 1.56868 4.97128 2.26116C5.71314 2.75032 6.19835 3.26958 6.3591 3.26681C8.13102 3.21852 8.82401 3.29552 11.6981 5.01202C14.3741 6.82667 16.562 9.40992 18.0587 12.4914C18.4304 13.7823 20.2249 17.9868 21.4477 20.1204C21.7635 20.5734 22.9828 20.8163 23.5369 21.0677C24.8598 21.5121 25.1168 21.7289 26.9726 23.1621C27.3021 23.4113 28.315 23.9578 28.3654 24.4083C26.7327 24.3607 25.4857 24.5236 24.4195 25.0065C24.1164 25.1438 23.6333 25.1473 23.5838 25.5552C23.8464 25.8406 23.6077 26.2564 24.9765 27.5995C26.369 28.8486 27.0418 28.9513 28.7371 29.9431C30.3616 31.0687 30.3828 31.4183 30.7333 31.5385V31.4887C30.3883 30.6746 30.4083 30.7905 29.8048 30.1423C27.6167 27.206 26.0105 27.4074 25.3479 26.0039C27.1261 25.3195 28.0479 25.5634 29.7121 24.9567V24.7572C28.583 22.9661 25.3581 20.307 22.4653 19.3606C20.616 15.8331 19.8419 13.3244 18.8943 11.2947C16.9026 7.68287 11.6421 1.72476 6.86977 2.11993C6.55807 1.97999 6.23376 1.57036 5.94129 1.37199C4.77682 0.581913 1.78992 -1.13662 0.927422 1.12275C0.382827 2.54888 1.74132 3.94058 2.22717 4.66297C2.56824 5.16994 3.00487 5.7383 3.24852 6.3084C3.48704 6.92626 3.41872 7.38413 4.64134 10.3971C5.54517 12.3515 5.71384 11.778 5.89476 12.4914C5.60808 12.9222 5.59174 13.591 5.43062 14.1368C4.12711 18.4796 6.1721 23.6113 8.16973 22.7631C9.19337 22.3176 8.84921 20.5942 9.26899 19.4451C9.86605 20.5637 10.0508 22.0112 12.766 24.2092C13.2483 24.6004 13.7653 25.3126 14.3816 25.5374C13.7435 25.0951 13.1953 24.4283 12.6731 23.7105C11.8272 22.4769 11.0795 21.1268 10.3984 19.7213C9.28229 17.4963 9.51998 17.0744 9.19128 16.8292ZM7.64668 6.65063C7.33024 5.90319 7.20882 6.07497 6.87371 5.70643C6.53723 5.69977 6.29237 5.75377 6.04072 5.81274C6.02691 5.8216 6.03036 5.83972 6.0418 5.86213C6.20227 6.21631 6.53052 6.44414 6.72902 6.74925L7.18795 7.78396C7.52868 7.53977 7.65003 7.13955 7.64668 6.65063Z" fill="white" fill-opacity="0.5"/>
</g>
<defs>
<clipPath id="clip0_244_90">
<rect width="31.5385" height="31.5385" fill="white"/>
</clipPath>
</defs>
</svg>
